<?xml version="1.0" standalone="no"?>
<!DOCTYPE svg PUBLIC "-//W3C//DTD SVG 20010904//EN"
 "http://www.w3.org/TR/2001/REC-SVG-20010904/DTD/svg10.dtd">
<svg version="1.0" xmlns="http://www.w3.org/2000/svg"
 width="700.000000pt" height="700.000000pt" viewBox="0 0 700.000000 700.000000"
 preserveAspectRatio="xMidYMid meet">
<metadata>
Created by potrace 1.14, written by Peter Selinger 2001-2017
</metadata>
<g transform="translate(0.000000,700.000000) scale(0.100000,-0.100000)"
fill="#000000" stroke="none">
<path d="M0 3500 l0 -3500 3500 0 3500 0 0 3500 0 3500 -3500 0 -3500 0 0
-3500z m3622 1957 c110 -57 154 -147 145 -297 -7 -110 -23 -181 -51 -222 -18
-27 -29 -34 -63 -36 -53 -4 -58 6 -67 123 -9 133 -11 138 -57 132 -47 -6 -105
-46 -209 -144 -158 -149 -390 -438 -564 -703 -152 -231 -342 -557 -331 -568
29 -29 382 317 661 648 233 277 373 422 434 449 67 30 122 28 162 -8 19 -16
44 -49 56 -74 21 -43 22 -51 15 -223 -17 -400 18 -655 103 -740 53 -53 112
-46 267 32 269 135 681 446 1003 756 l82 78 63 0 c35 0 69 -4 74 -8 24 -18 38
-62 33 -112 -8 -75 -75 -167 -258 -350 -371 -372 -838 -676 -1128 -735 -141
-29 -277 8 -366 100 -114 117 -176 353 -176 671 0 113 -1 116 -18 101 -19 -17
-118 -141 -321 -402 -352 -453 -638 -664 -946 -699 -57 -7 -63 -6 -110 26
-100 67 -137 143 -157 324 -19 168 18 306 149 562 208 404 529 818 824 1065
212 176 450 285 626 287 50 0 73 -6 125 -33z m-1977 -2789 c3 -7 27 -164 55
-348 28 -184 53 -345 55 -357 5 -22 2 -23 -49 -23 l-54 0 -6 58 c-11 92 -11
92 -66 92 -55 0 -54 1 -65 -92 l-6 -58 -53 0 c-50 0 -53 2 -49 23 2 12 26 173
53 357 28 184 52 341 55 348 3 8 26 12 65 12 39 0 62 -4 65 -12z m773 -12 c78
-40 96 -119 90 -394 -3 -165 -6 -193 -25 -235 -30 -65 -77 -86 -190 -87 l-83
0 0 371 0 372 89 -6 c50 -3 102 -12 119 -21z m782 20 c0 -8 100 -669 106 -703
l6 -33 -55 0 -54 0 -9 73 -9 72 -52 3 -52 3 -6 -48 c-14 -108 -11 -103 -66
-103 -32 0 -49 4 -49 13 0 16 100 698 106 715 2 8 25 12 69 12 36 0 65 -2 65
-4z m772 -23 c54 -31 80 -90 81 -182 0 -67 -4 -87 -27 -135 l-27 -56 30 -158
c17 -88 31 -165 31 -171 0 -8 -17 -11 -52 -9 l-53 3 -18 100 c-33 187 -38 205
-53 205 -11 0 -14 -27 -14 -155 l0 -155 -55 0 -55 0 0 363 c0 200 3 367 8 371
14 15 170 -1 204 -21z m768 12 c37 -19 59 -61 67 -124 5 -48 5 -48 -27 -55
-60 -12 -67 -9 -76 35 -17 79 -74 82 -74 4 0 -52 12 -79 82 -183 75 -111 98
-167 98 -237 0 -73 -22 -121 -70 -153 -29 -20 -44 -23 -88 -20 -89 8 -138 62
-144 163 l-2 50 52 3 c50 3 52 2 52 -23 0 -42 27 -95 48 -95 40 0 59 59 39
117 -7 21 -36 72 -64 113 -27 41 -62 99 -77 128 -52 103 -44 205 19 261 30 26
44 31 86 31 27 0 63 -7 79 -15z m640 -140 l0 -155 45 0 45 0 0 155 0 155 50 0
50 0 0 -370 0 -370 -50 0 -50 0 0 160 0 160 -45 0 -45 0 0 -160 0 -160 -55 0
-55 0 0 363 c0 200 3 367 7 370 3 4 28 7 55 7 l48 0 0 -155z"/>
<path d="M1577 2440 c-9 -22 -34 -230 -28 -235 7 -8 59 -6 64 3 2 4 -4 61 -13
127 -9 66 -19 113 -23 105z"/>
<path d="M2320 2310 l0 -260 25 0 c45 0 50 26 50 263 0 218 0 219 -24 238 -51
41 -51 40 -51 -241z"/>
<path d="M3127 2420 c-11 -52 -27 -172 -27 -197 0 -20 5 -23 35 -23 l36 0 -7
53 c-4 28 -12 86 -19 127 -11 68 -12 72 -18 40z"/>
<path d="M3870 2460 c0 -119 5 -128 51 -91 21 17 24 28 24 91 0 63 -3 74 -24
91 -46 37 -51 28 -51 -91z"/>
</g>
</svg>
