<svg xmlns="http://www.w3.org/2000/svg" width="500" zoomAndPan="magnify"
     viewBox="0 0 375 374.999991" height="500" preserveAspectRatio="xMidYMid meet" version="1.0">
    <defs>
        <g/>
    </defs>
    <rect x="-37.5" width="450" fill="#ffffff" y="-37.499999" height="449.999989" fill-opacity="1"/>
    <rect x="-37.5" width="450" fill="#ffffff" y="-37.499999" height="449.999989" fill-opacity="1"/>
    <g fill="#000000" fill-opacity="1">
        <g transform="translate(74.60332, 271.161954)">
            <g>
                <path d="M 0.539062 0 L 6.507812 -39.542969 L 13.609375 -39.542969 L 19.582031 0 L 13.933594 0 L 12.859375 -8.070312 L 7.261719 -8.070312 L 6.1875 0 Z M 10.382812 -26.683594 L 10.222656 -27.707031 L 9.898438 -27.707031 L 9.738281 -26.683594 L 8.070312 -14.203125 L 12.050781 -14.203125 Z M 10.382812 -26.683594 "/>
            </g>
        </g>
    </g>
    <g fill="#000000" fill-opacity="1">
        <g transform="translate(116.241988, 271.161954)">
            <g>
                <path d="M 2.152344 0 L 2.152344 -39.542969 L 6.726562 -39.542969 C 12.105469 -39.542969 15.007812 -38.464844 16.570312 -35.453125 C 18.074219 -32.441406 18.292969 -27.492188 18.292969 -19.742188 C 18.292969 -11.996094 18.074219 -7.101562 16.570312 -4.089844 C 15.007812 -1.074219 12.105469 0 6.726562 0 Z M 7.960938 -5.808594 C 9.953125 -5.808594 11.082031 -6.023438 11.675781 -7.960938 C 11.941406 -8.875 12.160156 -10.273438 12.210938 -12.160156 C 12.265625 -14.042969 12.265625 -16.570312 12.265625 -19.796875 C 12.265625 -23.023438 12.265625 -25.554688 12.210938 -27.4375 C 12.160156 -29.265625 11.941406 -30.664062 11.675781 -31.632812 C 11.082031 -33.515625 9.953125 -33.730469 7.960938 -33.730469 Z M 7.960938 -5.808594 "/>
            </g>
        </g>
    </g>
    <g fill="#000000" fill-opacity="1">
        <g transform="translate(157.773081, 271.161954)">
            <g>
                <path d="M 0.539062 0 L 6.507812 -39.542969 L 13.609375 -39.542969 L 19.582031 0 L 13.933594 0 L 12.859375 -8.070312 L 7.261719 -8.070312 L 6.1875 0 Z M 10.382812 -26.683594 L 10.222656 -27.707031 L 9.898438 -27.707031 L 9.738281 -26.683594 L 8.070312 -14.203125 L 12.050781 -14.203125 Z M 10.382812 -26.683594 "/>
            </g>
        </g>
    </g>
    <g fill="#000000" fill-opacity="1">
        <g transform="translate(199.411753, 271.161954)">
            <g>
                <path d="M 12.535156 0 L 9.523438 -16.675781 L 7.960938 -16.675781 L 7.960938 0 L 2.152344 0 L 2.152344 -39.542969 L 7.960938 -39.542969 C 14.902344 -39.542969 17.859375 -35.613281 17.859375 -28.136719 C 17.859375 -24.207031 16.839844 -20.660156 14.632812 -19.152344 L 18.34375 0 Z M 7.960938 -22.058594 C 8.769531 -22.058594 9.84375 -22.164062 10.707031 -22.917969 C 11.566406 -23.671875 12.265625 -25.125 12.265625 -27.921875 C 12.265625 -30.71875 11.566406 -32.226562 10.707031 -32.976562 C 9.84375 -33.730469 8.769531 -33.785156 7.960938 -33.785156 Z M 7.960938 -22.058594 "/>
            </g>
        </g>
    </g>
    <g fill="#000000" fill-opacity="1">
        <g transform="translate(240.351158, 271.161954)">
            <g>
                <path d="M 11.78125 -28.941406 C 11.78125 -30.234375 11.726562 -31.6875 11.351562 -32.816406 C 10.976562 -33.890625 10.382812 -34.644531 9.46875 -34.644531 C 7.960938 -34.589844 7.476562 -33.03125 7.476562 -30.71875 C 7.476562 -29.375 8.070312 -27.976562 8.929688 -26.46875 C 9.792969 -24.960938 10.921875 -23.402344 12.050781 -21.734375 C 13.394531 -19.742188 14.742188 -17.699219 15.761719 -15.707031 C 16.785156 -13.71875 17.484375 -11.675781 17.484375 -9.523438 C 17.484375 -6.886719 17.054688 -4.410156 15.816406 -2.582031 C 14.578125 -0.753906 12.589844 0.429688 9.414062 0.429688 C 5.703125 0.429688 3.605469 -0.96875 2.421875 -3.121094 C 1.238281 -5.273438 0.96875 -8.125 0.96875 -11.082031 L 6.671875 -11.621094 C 6.671875 -9.953125 6.726562 -8.285156 7.15625 -7.046875 C 7.53125 -5.757812 8.175781 -4.894531 9.414062 -4.894531 C 11.136719 -4.894531 11.78125 -6.726562 11.78125 -9.253906 C 11.78125 -10.542969 11.136719 -12.050781 10.273438 -13.609375 C 9.792969 -14.363281 9.308594 -15.171875 8.769531 -15.976562 C 7.640625 -17.589844 6.402344 -19.421875 5.109375 -21.410156 C 3.820312 -23.402344 2.851562 -25.445312 2.257812 -27.542969 C 1.9375 -28.566406 1.773438 -29.640625 1.773438 -30.71875 C 1.773438 -32.871094 2.257812 -35.183594 3.496094 -36.957031 C 4.734375 -38.679688 6.617188 -39.917969 9.359375 -39.972656 C 12.859375 -40.023438 14.902344 -38.574219 16.03125 -36.476562 C 17.160156 -34.324219 17.484375 -31.6875 17.484375 -29.480469 Z M 11.78125 -28.941406 "/>
            </g>
        </g>
    </g>
    <g fill="#000000" fill-opacity="1">
        <g transform="translate(280.322369, 271.161954)">
            <g>
                <path d="M 12.480469 -17.214844 L 7.960938 -17.214844 L 7.960938 0 L 2.152344 0 L 2.152344 -39.542969 L 7.960938 -39.542969 L 7.960938 -23.1875 L 12.480469 -23.1875 L 12.480469 -39.542969 L 18.292969 -39.542969 L 18.292969 0 L 12.480469 0 Z M 12.480469 -17.214844 "/>
            </g>
        </g>
    </g>
    <g fill="#000000" fill-opacity="1">
        <g transform="translate(113.704026, 238.994238)">
            <g>
                <path d="M -0.84375 -33.820312 C 25.363281 -33.820312 47.347656 -63.410156 61.722656 -82.859375 C 66.792969 -88.777344 70.175781 -93.847656 71.019531 -93.847656 C 71.019531 -76.09375 71.019531 -45.65625 95.539062 -45.65625 C 116.675781 -45.65625 163.179688 -82.859375 173.324219 -100.613281 C 175.015625 -103.148438 175.015625 -107.378906 174.171875 -108.222656 C 173.324219 -109.066406 173.324219 -109.914062 173.324219 -109.914062 C 173.324219 -110.757812 170.789062 -110.757812 168.253906 -110.757812 C 167.40625 -110.757812 166.5625 -110.757812 165.714844 -110.757812 C 164.871094 -110.757812 161.488281 -107.378906 158.105469 -103.996094 C 148.804688 -94.695312 109.914062 -62.566406 96.386719 -62.566406 C 94.695312 -62.566406 93.847656 -63.410156 92.160156 -65.101562 C 88.777344 -69.332031 86.238281 -82.011719 87.085938 -101.457031 C 87.929688 -114.140625 87.929688 -114.140625 86.238281 -116.675781 C 84.550781 -120.058594 82.011719 -121.75 79.476562 -121.75 C 77.785156 -121.75 75.25 -120.90625 72.710938 -119.214844 C 69.332031 -116.675781 65.101562 -112.449219 51.574219 -96.386719 C 37.203125 -78.628906 18.601562 -60.03125 16.0625 -61.722656 C 15.21875 -61.722656 30.4375 -87.929688 39.738281 -100.613281 C 54.113281 -120.90625 70.175781 -137.816406 76.09375 -137.816406 C 76.941406 -137.816406 77.785156 -137.816406 77.785156 -136.96875 C 77.785156 -136.96875 77.785156 -133.585938 78.628906 -131.050781 C 78.628906 -125.976562 78.628906 -125.132812 79.476562 -124.285156 C 80.320312 -123.441406 81.167969 -123.441406 82.011719 -123.441406 C 85.394531 -123.441406 87.085938 -127.667969 87.929688 -134.433594 C 88.777344 -140.351562 88.777344 -143.734375 86.238281 -147.960938 C 84.550781 -152.1875 78.628906 -155.570312 72.710938 -155.570312 C 71.019531 -155.570312 70.175781 -154.726562 68.484375 -154.726562 C 37.203125 -149.652344 0.84375 -98.921875 -10.144531 -69.332031 C -12.683594 -61.722656 -12.683594 -56.648438 -11.835938 -50.730469 C -10.992188 -41.429688 -6.765625 -36.355469 -0.84375 -33.820312 Z M -0.84375 -33.820312 "/>
            </g>
        </g>
    </g>
</svg>